<svg xmlns="http://www.w3.org/2000/svg" xmlns:xlink="http://www.w3.org/1999/xlink" width="500" zoomAndPan="magnify" viewBox="0 0 375 374.999991" height="500" preserveAspectRatio="xMidYMid meet" version="1.0">
<defs><clipPath id="c2850fe9db"><path d="M 51.75 38.117188 L 322 38.117188 L 322 336 L 51.75 336 Z M 51.75 38.117188 " clip-rule="nonzero"/>
</clipPath></defs><g clip-path="url(#c2850fe9db)"><path fill="#ffffff" d="M 200.328125 38.914062 C 118.265625 38.914062 51.746094 105.378906 51.746094 187.367188 C 51.746094 269.355469 118.265625 335.824219 200.328125 335.824219 C 248.945312 335.824219 292.113281 312.476562 319.195312 276.449219 C 322.269531 272.359375 322.769531 266.886719 320.480469 262.3125 C 318.191406 257.738281 313.515625 254.847656 308.398438 254.847656 C 252.445312 254.847656 207.082031 209.527344 207.082031 153.628906 C 207.082031 119.144531 224.328125 88.683594 250.734375 70.386719 C 254.9375 67.476562 257.136719 62.441406 256.410156 57.382812 C 255.683594 52.324219 252.160156 48.105469 247.304688 46.492188 C 232.523438 41.574219 216.722656 38.914062 200.328125 38.914062 Z M 200.328125 38.914062 " fill-opacity="1" fill-rule="evenodd"/></g></svg>