<svg xmlns="http://www.w3.org/2000/svg" xmlns:xlink="http://www.w3.org/1999/xlink" width="500" zoomAndPan="magnify" viewBox="0 0 375 374.999991" height="500" preserveAspectRatio="xMidYMid meet" version="1.0"><defs><clipPath id="1e2214da2e"><path d="M 40.96875 40.96875 L 334.21875 40.96875 L 334.21875 334.21875 L 40.96875 334.21875 Z M 40.96875 40.96875 " clip-rule="nonzero"/></clipPath></defs><g clip-path="url(#1e2214da2e)"><path fill="#ffffff" d="M 177.742188 295.039062 L 177.742188 324.367188 C 177.742188 329.761719 182.121094 334.140625 187.515625 334.140625 C 192.910156 334.140625 197.289062 329.761719 197.289062 324.367188 L 197.289062 295.039062 C 197.289062 289.644531 192.910156 285.265625 187.515625 285.265625 C 182.121094 285.265625 177.742188 289.644531 177.742188 295.039062 Z M 291.195312 277.371094 L 270.460938 256.632812 C 266.644531 252.820312 260.449219 252.820312 256.632812 256.632812 C 252.820312 260.449219 252.820312 266.644531 256.632812 270.460938 L 277.371094 291.195312 C 281.183594 295.011719 287.378906 295.011719 291.195312 291.195312 C 295.011719 287.378906 295.011719 281.183594 291.195312 277.371094 Z M 104.570312 256.632812 L 83.835938 277.371094 C 80.019531 281.183594 80.019531 287.378906 83.835938 291.195312 C 87.652344 295.011719 93.84375 295.011719 97.660156 291.195312 L 118.394531 270.460938 C 122.210938 266.644531 122.210938 260.449219 118.394531 256.632812 C 114.582031 252.820312 108.386719 252.820312 104.570312 256.632812 Z M 187.515625 109.316406 C 144.355469 109.316406 109.316406 144.355469 109.316406 187.515625 C 109.316406 230.675781 144.355469 265.714844 187.515625 265.714844 C 230.675781 265.714844 265.714844 230.675781 265.714844 187.515625 C 265.714844 144.355469 230.675781 109.316406 187.515625 109.316406 Z M 187.515625 128.867188 C 219.886719 128.867188 246.167969 155.144531 246.167969 187.515625 C 246.167969 219.886719 219.886719 246.167969 187.515625 246.167969 C 155.144531 246.167969 128.867188 219.886719 128.867188 187.515625 C 128.867188 155.144531 155.144531 128.867188 187.515625 128.867188 Z M 324.367188 177.742188 L 295.039062 177.742188 C 289.644531 177.742188 285.265625 182.121094 285.265625 187.515625 C 285.265625 192.910156 289.644531 197.289062 295.039062 197.289062 L 324.367188 197.289062 C 329.761719 197.289062 334.140625 192.910156 334.140625 187.515625 C 334.140625 182.121094 329.761719 177.742188 324.367188 177.742188 Z M 79.988281 177.742188 L 50.664062 177.742188 C 45.269531 177.742188 40.890625 182.121094 40.890625 187.515625 C 40.890625 192.910156 45.269531 197.289062 50.664062 197.289062 L 79.988281 197.289062 C 85.386719 197.289062 89.765625 192.910156 89.765625 187.515625 C 89.765625 182.121094 85.386719 177.742188 79.988281 177.742188 Z M 277.371094 83.835938 L 256.632812 104.570312 C 252.820312 108.386719 252.820312 114.582031 256.632812 118.394531 C 260.449219 122.210938 266.644531 122.210938 270.460938 118.394531 L 291.195312 97.660156 C 295.011719 93.84375 295.011719 87.652344 291.195312 83.835938 C 287.378906 80.019531 281.183594 80.019531 277.371094 83.835938 Z M 118.394531 104.570312 L 97.660156 83.835938 C 93.84375 80.019531 87.652344 80.019531 83.835938 83.835938 C 80.019531 87.652344 80.019531 93.84375 83.835938 97.660156 L 104.570312 118.394531 C 108.386719 122.210938 114.582031 122.210938 118.394531 118.394531 C 122.210938 114.582031 122.210938 108.386719 118.394531 104.570312 Z M 177.742188 50.664062 L 177.742188 79.988281 C 177.742188 85.386719 182.121094 89.765625 187.515625 89.765625 C 192.910156 89.765625 197.289062 85.386719 197.289062 79.988281 L 197.289062 50.664062 C 197.289062 45.269531 192.910156 40.890625 187.515625 40.890625 C 182.121094 40.890625 177.742188 45.269531 177.742188 50.664062 Z M 177.742188 50.664062 " fill-opacity="1" fill-rule="evenodd"/></g></svg>