<svg 
    xmlns="http://www.w3.org/2000/svg" 
    xmlns:xlink="http://www.w3.org/1999/xlink" 
    width="500" 
    zoomAndPan="magnify" 
    viewBox="0 0 375 374.999991" 
    height="500" 
    preserveAspectRatio="xMidYMid meet" 
    version="1.0">
    <defs>
        <clipPath id="30cc54f2e4">
            <path
                d="M 75.3125 47.886719 L 304 47.886719 L 304 326.886719 L 75.3125 326.886719 Z M 75.3125 47.886719 " 
                clip-rule="nonzero"
            />
        </clipPath>
    </defs>
    <g clip-path="url(#30cc54f2e4)">
        <path 
            fill="#ffffff" 
            d="M 276.808594 145.257812 C 278.203125 139.625 278.871094 133.820312 278.871094 128.015625 C 278.925781 83.824219 238.867188 47.886719 189.660156 47.886719 C 140.449219 47.886719 100.445312 83.824219 100.445312 128.015625 C 100.445312 133.820312 101.171875 139.566406 102.507812 145.257812 C 85.4375 156.808594 75.394531 174.777344 75.394531 194.195312 C 75.394531 227.957031 105.914062 255.410156 143.40625 255.410156 L 187.09375 255.410156 L 187.09375 321.308594 C 187.09375 324.378906 189.601562 326.886719 192.671875 326.886719 C 195.738281 326.886719 198.25 324.378906 198.25 321.308594 L 198.25 255.351562 L 235.964844 255.351562 C 273.460938 255.351562 303.921875 227.898438 303.921875 194.140625 C 303.976562 174.777344 293.878906 156.808594 276.808594 145.257812 Z M 235.964844 244.191406 L 198.25 244.191406 L 198.25 170.535156 L 230.945312 140.238281 C 233.234375 138.117188 233.34375 134.601562 231.222656 132.371094 C 229.105469 130.082031 225.589844 129.96875 223.359375 132.089844 L 198.25 155.359375 L 198.25 114.234375 C 198.25 111.164062 195.738281 108.65625 192.671875 108.65625 C 189.601562 108.65625 187.09375 111.164062 187.09375 114.234375 L 187.09375 192.691406 L 161.984375 169.421875 C 159.699219 167.300781 156.183594 167.46875 154.117188 169.699219 C 152 171.988281 152.164062 175.503906 154.398438 177.566406 L 187.09375 207.867188 L 187.09375 244.25 L 143.40625 244.25 C 112.050781 244.191406 86.554688 221.761719 86.554688 194.195312 C 86.554688 177.457031 95.980469 161.886719 111.828125 152.570312 C 114.058594 151.230469 115.0625 148.609375 114.335938 146.097656 C 112.496094 140.183594 111.605469 134.097656 111.605469 128.015625 C 111.605469 90.015625 146.640625 59.046875 189.660156 59.046875 C 232.730469 59.046875 267.714844 90.015625 267.714844 128.015625 C 267.714844 134.097656 266.820312 140.183594 264.980469 146.097656 C 264.199219 148.550781 265.257812 151.230469 267.488281 152.570312 C 283.335938 161.886719 292.765625 177.457031 292.765625 194.195312 C 292.820312 221.761719 267.324219 244.191406 235.964844 244.191406 Z M 235.964844 244.191406 " 
            fill-opacity="1" 
            fill-rule="nonzero"
        />
    </g>
</svg>