<svg xmlns="http://www.w3.org/2000/svg" xmlns:xlink="http://www.w3.org/1999/xlink" width="500" zoomAndPan="magnify" viewBox="0 0 375 374.999991" height="500" preserveAspectRatio="xMidYMid meet" version="1.0"><defs><clipPath id="02ee66cded"><path d="M 57.164062 24.578125 L 318.164062 24.578125 L 318.164062 350.078125 L 57.164062 350.078125 Z M 57.164062 24.578125 " clip-rule="nonzero"/></clipPath></defs><g clip-path="url(#02ee66cded)"><path fill="#ffffff" d="M 122.414062 89.679688 L 68.039062 89.679688 C 62.035156 89.679688 57.164062 94.539062 57.164062 100.527344 L 57.164062 339.226562 C 57.164062 345.21875 62.035156 350.078125 68.039062 350.078125 L 242.039062 350.078125 C 248.039062 350.078125 252.914062 345.21875 252.914062 339.226562 L 252.914062 284.976562 L 307.289062 284.976562 C 313.289062 284.976562 318.164062 280.117188 318.164062 274.128906 L 318.164062 100.527344 C 318.164062 98.671875 317.695312 96.9375 316.878906 95.40625 C 316.488281 94.679688 316 93.972656 315.421875 93.335938 L 315.226562 93.105469 L 315.074219 92.945312 L 314.976562 92.855469 C 314.976562 92.855469 249.726562 27.757812 249.726562 27.757812 L 249.53125 27.5625 L 249.324219 27.367188 L 249.246094 27.3125 C 248.605469 26.738281 247.898438 26.25 247.171875 25.859375 C 245.636719 25.042969 243.898438 24.578125 242.039062 24.578125 L 133.289062 24.578125 C 127.285156 24.578125 122.414062 29.4375 122.414062 35.429688 Z M 122.414062 111.378906 L 78.914062 111.378906 C 78.914062 111.378906 78.914062 328.378906 78.914062 328.378906 C 78.914062 328.378906 231.164062 328.378906 231.164062 328.378906 L 231.164062 284.976562 L 133.289062 284.976562 C 127.285156 284.976562 122.414062 280.117188 122.414062 274.128906 Z M 231.164062 100.527344 C 231.164062 106.515625 236.035156 111.378906 242.039062 111.378906 L 296.414062 111.378906 C 296.414062 111.378906 296.414062 263.277344 296.414062 263.277344 C 296.414062 263.277344 144.164062 263.277344 144.164062 263.277344 C 144.164062 263.277344 144.164062 46.277344 144.164062 46.277344 C 144.164062 46.277344 231.164062 46.277344 231.164062 46.277344 C 231.164062 46.277344 231.164062 100.527344 231.164062 100.527344 Z M 252.914062 89.679688 L 281.035156 89.679688 L 252.914062 61.621094 Z M 252.914062 89.679688 " fill-opacity="1" fill-rule="evenodd"/></g></svg>