<svg xmlns="http://www.w3.org/2000/svg" xmlns:xlink="http://www.w3.org/1999/xlink" width="500" zoomAndPan="magnify" viewBox="0 0 375 374.999991" height="500" preserveAspectRatio="xMidYMid meet" version="1.0"><defs><clipPath id="06aceb7e75"><path d="M 183 30.683594 L 192 30.683594 L 192 90 L 183 90 Z M 183 30.683594 " clip-rule="nonzero"/></clipPath><clipPath id="624fa510cb"><path d="M 183.203125 285.3125 L 192 285.3125 L 192 344.152344 L 183.203125 344.152344 Z M 183.203125 285.3125 " clip-rule="nonzero"/></clipPath><clipPath id="c549ced856"><path d="M 30.683594 183 L 90 183 L 90 192 L 30.683594 192 Z M 30.683594 183 " clip-rule="nonzero"/></clipPath><clipPath id="bb9d06f72d"><path d="M 285.3125 183.203125 L 344.152344 183.203125 L 344.152344 192 L 285.3125 192 Z M 285.3125 183.203125 " clip-rule="nonzero"/></clipPath></defs><path fill="#000000" d="M 187.417969 129.585938 C 155.53125 129.585938 129.585938 155.53125 129.585938 187.417969 C 129.585938 219.308594 155.53125 245.25 187.417969 245.25 C 219.308594 245.25 245.25 219.308594 245.25 187.417969 C 245.25 155.53125 219.308594 129.585938 187.417969 129.585938 Z M 187.417969 253.632812 C 150.910156 253.632812 121.203125 223.929688 121.203125 187.417969 C 121.203125 150.910156 150.910156 121.203125 187.417969 121.203125 C 223.929688 121.203125 253.632812 150.910156 253.632812 187.417969 C 253.632812 223.929688 223.929688 253.632812 187.417969 253.632812 " fill-opacity="1" fill-rule="nonzero"/><g clip-path="url(#06aceb7e75)"><path fill="#000000" d="M 187.417969 89.355469 C 185.105469 89.355469 183.226562 87.476562 183.226562 85.164062 L 183.226562 34.875 C 183.226562 32.5625 185.105469 30.683594 187.417969 30.683594 C 189.734375 30.683594 191.613281 32.5625 191.613281 34.875 L 191.613281 85.164062 C 191.613281 87.476562 189.734375 89.355469 187.417969 89.355469 " fill-opacity="1" fill-rule="nonzero"/></g><g clip-path="url(#624fa510cb)"><path fill="#000000" d="M 187.417969 344.152344 C 185.105469 344.152344 183.226562 342.277344 183.226562 339.964844 L 183.226562 289.671875 C 183.226562 287.359375 185.105469 285.484375 187.417969 285.484375 C 189.734375 285.484375 191.613281 287.359375 191.613281 289.671875 L 191.613281 339.964844 C 191.613281 342.277344 189.734375 344.152344 187.417969 344.152344 " fill-opacity="1" fill-rule="nonzero"/></g><path fill="#000000" d="M 118.078125 118.078125 C 116.441406 119.714844 113.789062 119.714844 112.152344 118.078125 L 76.59375 82.515625 C 74.953125 80.882812 74.953125 78.226562 76.59375 76.589844 C 78.226562 74.953125 80.882812 74.953125 82.515625 76.589844 L 118.078125 112.152344 C 119.714844 113.789062 119.714844 116.441406 118.078125 118.078125 " fill-opacity="1" fill-rule="nonzero"/><path fill="#000000" d="M 298.246094 298.246094 C 296.609375 299.882812 293.957031 299.882812 292.320312 298.246094 L 256.757812 262.6875 C 255.125 261.050781 255.125 258.398438 256.757812 256.757812 C 258.398438 255.125 261.050781 255.125 262.6875 256.757812 L 298.246094 292.320312 C 299.886719 293.957031 299.886719 296.609375 298.246094 298.246094 " fill-opacity="1" fill-rule="nonzero"/><g clip-path="url(#c549ced856)"><path fill="#000000" d="M 89.355469 187.417969 C 89.355469 189.734375 87.480469 191.609375 85.164062 191.609375 L 34.875 191.609375 C 32.5625 191.609375 30.683594 189.734375 30.683594 187.417969 C 30.683594 185.101562 32.5625 183.226562 34.875 183.226562 L 85.164062 183.226562 C 87.480469 183.226562 89.355469 185.101562 89.355469 187.417969 " fill-opacity="1" fill-rule="nonzero"/></g><g clip-path="url(#bb9d06f72d)"><path fill="#000000" d="M 344.152344 187.417969 C 344.152344 189.734375 342.277344 191.609375 339.964844 191.609375 L 289.671875 191.609375 C 287.359375 191.609375 285.484375 189.734375 285.484375 187.417969 C 285.484375 185.101562 287.359375 183.226562 289.671875 183.226562 L 339.964844 183.226562 C 342.277344 183.226562 344.152344 185.101562 344.152344 187.417969 " fill-opacity="1" fill-rule="nonzero"/></g><path fill="#000000" d="M 118.078125 256.757812 C 119.714844 258.398438 119.714844 261.050781 118.078125 262.6875 L 82.515625 298.246094 C 80.882812 299.882812 78.226562 299.882812 76.59375 298.246094 C 74.953125 296.609375 74.953125 293.957031 76.59375 292.320312 L 112.152344 256.757812 C 113.789062 255.125 116.441406 255.125 118.078125 256.757812 " fill-opacity="1" fill-rule="nonzero"/><path fill="#000000" d="M 298.246094 76.589844 C 299.886719 78.226562 299.886719 80.882812 298.246094 82.515625 L 262.6875 118.078125 C 261.050781 119.714844 258.398438 119.714844 256.757812 118.078125 C 255.125 116.441406 255.125 113.789062 256.757812 112.152344 L 292.320312 76.589844 C 293.957031 74.953125 296.609375 74.953125 298.246094 76.589844 " fill-opacity="1" fill-rule="nonzero"/></svg>