<?xml version="1.0" encoding="UTF-8" standalone="no" ?>
<!DOCTYPE svg PUBLIC "-//W3C//DTD SVG 1.1//EN" "http://www.w3.org/Graphics/SVG/1.1/DTD/svg11.dtd">
<svg xmlns="http://www.w3.org/2000/svg" xmlns:xlink="http://www.w3.org/1999/xlink" version="1.1" width="1280" height="1024" viewBox="0 0 1280 1024" xml:space="preserve">
<desc>Created with Fabric.js 4.4.0</desc>
<defs>
</defs>
<g transform="matrix(1 0 0 1 640 512)" id="background-logo"  >
<rect style="stroke: none; stroke-width: 0; stroke-dasharray: none; stroke-linecap: butt; stroke-dashoffset: 0; stroke-linejoin: miter; stroke-miterlimit: 4; fill: rgb(255,255,255); fill-opacity: 0; fill-rule: nonzero; opacity: 1;"  paint-order="stroke"  x="-640" y="-512" rx="0" ry="0" width="1280" height="1024" />
</g>
<g transform="matrix(1.9211538461538462 0 0 1.9211538461538462 640 395.2261535396409)" id="logo-logo"  >
<g style=""  paint-order="stroke"   >
		<g transform="matrix(1.471888740517334 0 0 -1.4718887405173342 0 0)"  >
<linearGradient id="SVGID_6_942341" gradientUnits="userSpaceOnUse" gradientTransform="matrix(1 0 0 1 22.99839415305499 19.064999999999998)"  x1="0" y1="0" x2="0" y2="112">
<stop offset="0%" style="stop-color:rgb(23,234,217);stop-opacity: 1"/>
<stop offset="100%" style="stop-color:rgb(96,120,234);stop-opacity: 1"/>
</linearGradient>
<path style="stroke: none; stroke-width: 1; stroke-dasharray: none; stroke-linecap: butt; stroke-dashoffset: 0; stroke-linejoin: miter; stroke-miterlimit: 4; fill: url(#SVGID_6_942341); fill-rule: nonzero; opacity: 1;"  paint-order="stroke"  transform=" translate(-78.91319741888024, -75.0005)" d="M 51.645 123.864 C 38.725 116.656 29.335 104.81 25.207 90.508 L 25.207 90.508 C 21.246 76.787 22.645 62.237 29.145 49.537 L 29.145 49.537 C 30.567999999999998 46.756 33.376 45.22 36.481 45.536 L 36.481 45.536 C 39.564 45.848 41.998000000000005 47.9 42.831 50.891000000000005 L 42.831 50.891000000000005 L 53.093 87.736 C 54.252 91.897 57.67 93.736 60.483000000000004 94.069 L 60.483000000000004 94.069 C 63.29900000000001 94.401 67.049 93.412 69.147 89.636 L 69.147 89.636 L 86.193 58.964 C 88.521 54.774 92.922 52.521 97.684 53.085 L 97.684 53.085 C 102.443 53.648 106.199 56.867000000000004 107.484 61.484 L 107.484 61.484 L 117.747 98.32900000000001 C 118.357 100.52100000000002 120.157 101.462 121.639 101.61200000000001 L 121.639 101.61200000000001 C 123.13 101.76500000000001 125.10199999999999 101.19600000000001 126.148 99.15 L 126.148 99.15 C 132.231 87.265 133.607 73.631 130.022 60.758 L 130.022 60.758 C 126.22 47.107 117.329 35.753 104.989 28.789 L 104.989 28.789 C 92.647 21.825 78.332 20.083 64.68 23.885 L 64.68 23.885 C 59.812 25.24 55.198 27.264 50.945 29.9 L 50.945 29.9 C 50.967 29.968 50.994 30.035999999999998 51.013 30.104999999999997 L 51.013 30.104999999999997 C 51.763 32.794999999999995 50.183 35.593999999999994 47.492 36.343999999999994 L 47.492 36.343999999999994 C 46.187999999999995 36.706999999999994 44.821999999999996 36.541 43.644 35.87599999999999 L 43.644 35.87599999999999 C 42.464999999999996 35.21099999999999 41.616 34.12699999999999 41.253 32.82299999999999 L 41.253 32.82299999999999 C 40.505 30.131999999999994 42.083 27.333999999999993 44.774 26.583999999999993 L 44.774 26.583999999999993 C 45.226 26.45799999999999 45.685 26.395999999999994 46.141 26.395999999999994 L 46.141 26.395999999999994 C 47.001999999999995 26.395999999999994 47.853 26.617999999999995 48.622 27.051999999999992 L 48.622 27.051999999999992 C 48.877 27.19599999999999 49.113 27.362999999999992 49.335 27.543999999999993 L 49.335 27.543999999999993 C 53.847 24.731999999999992 58.747 22.578999999999994 63.915 21.138999999999992 L 63.915 21.138999999999992 C 68.899 19.751 73.965 19.065 79 19.065 L 79 19.065 C 88.501 19.065 97.89 21.51 106.389 26.307000000000002 L 106.389 26.307000000000002 C 119.393 33.646 128.761 45.609 132.768 59.994 L 132.768 59.994 C 136.545 73.55799999999999 135.096 87.925 128.686 100.449 L 128.686 100.449 C 127.26400000000001 103.229 124.45400000000001 104.75999999999999 121.352 104.448 L 121.352 104.448 C 118.26700000000001 104.136 115.834 102.08399999999999 115.001 99.094 L 115.001 99.094 L 104.738 62.248 C 103.579 58.086999999999996 100.161 56.248 97.348 55.915 L 97.348 55.915 C 94.535 55.583 90.783 56.572 88.685 60.348 L 88.685 60.348 L 71.639 91.021 C 69.31099999999999 95.21000000000001 64.908 97.463 60.147999999999996 96.899 L 60.147999999999996 96.899 C 55.388999999999996 96.337 51.632999999999996 93.118 50.346999999999994 88.501 L 50.346999999999994 88.501 L 40.084 51.655 C 39.474000000000004 49.463 37.67400000000001 48.522 36.193000000000005 48.372 L 36.193000000000005 48.372 C 34.699000000000005 48.221 32.729000000000006 48.79 31.682000000000006 50.836 L 31.682000000000006 50.836 C 25.514000000000006 62.887 24.187000000000005 76.696 27.946000000000005 89.71799999999999 L 27.946000000000005 89.71799999999999 C 35.982000000000006 117.55599999999998 65.23400000000001 133.878 93.15299999999999 126.09899999999999 L 93.15299999999999 126.09899999999999 C 98.026 124.74099999999999 102.63999999999999 122.719 106.88799999999999 120.08599999999998 L 106.88799999999999 120.08599999999998 C 106.865 120.01699999999998 106.838 119.94999999999999 106.818 119.87899999999999 L 106.818 119.87899999999999 C 106.456 118.576 106.622 117.21 107.28699999999999 116.03099999999999 L 107.28699999999999 116.03099999999999 C 107.952 114.853 109.03599999999999 114.00399999999999 110.339 113.63999999999999 L 110.339 113.63999999999999 C 110.791 113.51399999999998 111.25 113.45199999999998 111.706 113.45199999999998 L 111.706 113.45199999999998 C 112.568 113.45199999999998 113.418 113.67399999999998 114.188 114.10899999999998 L 114.188 114.10899999999998 C 115.367 114.77299999999998 116.215 115.85799999999998 116.578 117.16099999999999 L 116.578 117.16099999999999 C 116.941 118.46399999999998 116.775 119.83099999999999 116.11 121.00999999999999 L 116.11 121.00999999999999 C 115.445 122.189 114.361 123.03699999999999 113.057 123.39999999999999 L 113.057 123.39999999999999 C 111.754 123.764 110.388 123.597 109.209 122.93199999999999 L 109.209 122.93199999999999 C 108.955 122.78899999999999 108.72 122.62199999999999 108.49900000000001 122.442 L 108.49900000000001 122.442 C 103.992 125.25 99.093 127.40299999999999 93.918 128.845 L 93.918 128.845 C 88.899 130.243 83.795 130.935 78.73 130.936 L 78.73 130.936 C 69.322 130.936 60.043000000000006 128.549 51.645 123.864 M 111.10400000000001 116.38600000000001 C 110.53400000000002 116.546 110.06000000000002 116.91600000000001 109.76900000000002 117.43200000000002 L 109.76900000000002 117.43200000000002 C 109.47900000000001 117.94700000000002 109.40600000000002 118.54400000000001 109.56400000000002 119.11500000000002 L 109.56400000000002 119.11500000000002 C 109.72300000000003 119.68500000000002 110.09400000000002 120.15800000000003 110.61000000000003 120.45000000000002 L 110.61000000000003 120.45000000000002 C 110.94700000000003 120.64000000000001 111.31800000000003 120.73600000000002 111.69500000000002 120.73600000000002 L 111.69500000000002 120.73600000000002 C 111.89400000000002 120.73600000000002 112.09500000000003 120.70900000000002 112.29300000000002 120.65400000000002 L 112.29300000000002 120.65400000000002 C 112.86300000000001 120.49600000000002 113.33700000000002 120.12400000000002 113.62800000000001 119.60900000000002 L 113.62800000000001 119.60900000000002 C 113.91800000000002 119.09300000000002 113.99000000000001 118.49600000000002 113.83200000000001 117.92600000000002 L 113.83200000000001 117.92600000000002 C 113.674 117.35600000000002 113.302 116.88200000000002 112.787 116.59100000000002 L 112.787 116.59100000000002 C 112.45 116.40100000000002 112.078 116.30400000000002 111.70100000000001 116.30400000000002 L 111.70100000000001 116.30400000000002 C 111.50200000000001 116.30400000000002 111.301 116.33100000000002 111.10400000000001 116.38600000000001 M 45.539 29.33 C 44.363 29.657999999999998 43.672000000000004 30.881999999999998 43.999 32.059 L 43.999 32.059 C 44.158 32.629 44.529 33.102 45.044000000000004 33.393 L 45.044000000000004 33.393 C 45.56 33.684 46.157000000000004 33.757 46.728 33.598 L 46.728 33.598 C 47.904 33.269999999999996 48.595 32.046 48.267 30.869999999999997 L 48.267 30.869999999999997 C 48.109 30.299999999999997 47.737 29.825999999999997 47.222 29.534999999999997 L 47.222 29.534999999999997 C 46.885 29.344999999999995 46.512 29.247999999999998 46.136 29.247999999999998 L 46.136 29.247999999999998 C 45.937000000000005 29.247999999999998 45.736000000000004 29.275 45.539 29.33" stroke-linecap="round" />
</g>
</g>
</g>
<g transform="matrix(1.9211538461538462 0 0 1.9211538461538462 637.8178334210678 653.0877275223322)" id="text-logo"  >
<g style=""  paint-order="stroke"   >
		<g transform="matrix(1 0 0 1 0 0)" id="text-logo-path-0"  >
<linearGradient id="SVGID_942342" gradientUnits="userSpaceOnUse" gradientTransform="matrix(1 0 0 1 5.601697668563972 -37.63)"  x1="0" y1="0" x2="0" y2="60">
<stop offset="0%" style="stop-color:rgb(23,234,217);stop-opacity: 1"/>
<stop offset="100%" style="stop-color:rgb(96,120,234);stop-opacity: 1"/>
</linearGradient>
<path style="stroke: none; stroke-width: 0; stroke-dasharray: none; stroke-linecap: butt; stroke-dashoffset: 0; stroke-linejoin: miter; stroke-miterlimit: 4; fill: url(#SVGID_942342); fill-rule: nonzero; opacity: 1;"  paint-order="stroke"  transform=" translate(-131.44084883428198, 18.790000000000003)" d="M 5.67 -35.3 L 5.67 -1.27 C 5.67 -0.57 6.24 0 6.94 0 C 7.63 0 8.2 -0.57 8.2 -1.27 L 8.2 -31.65 L 30.49 -0.7 C 30.51 -0.67 30.56 -0.6 30.69 -0.47 C 30.95 -0.16 31.29 0 31.7 0 C 32.45 0 33.02 -0.57 33.02 -1.27 L 33.02 -35.45 C 33.02 -36.15 32.45 -36.72 31.7 -36.72 C 31 -36.72 30.43 -36.15 30.43 -35.45 L 30.43 -5.25 L 7.94 -36.41 C 7.61 -37.01 6.75 -37.11 6.16 -36.72 C 5.67 -36.33 5.49 -35.87 5.67 -35.3 Z M 49.93 -35.09 L 64.29 -0.91 L 64.34 -0.85 C 64.34 -0.78 64.37 -0.75 64.39 -0.75 C 64.5 -0.41 64.7 -0.21 65.04 -0.1 L 65.09 -0.05 C 65.17 -0.03 65.33 0 65.56 0 C 65.69 0 65.84 -0.03 66.05 -0.1 L 66.1 -0.1 C 66.52 -0.26 66.75 -0.62 66.83 -1.16 L 81.19 -35.09 C 81.47 -35.74 81.16 -36.54 80.52 -36.77 C 79.87 -37.08 79.07 -36.8 78.86 -36.15 L 65.56 -4.55 L 52.31 -36.15 C 52.08 -36.8 51.27 -37.08 50.63 -36.77 C 49.98 -36.54 49.64 -35.74 49.93 -35.09 Z M 95.51 -35.82 L 95.51 -1.27 C 95.51 -0.57 96.08 0 96.78 0 C 97.53 0 98.12 -0.57 98.12 -1.27 L 98.12 -35.82 C 98.12 -36.52 97.53 -37.11 96.78 -37.11 C 96.08 -37.11 95.51 -36.52 95.51 -35.82 Z M 115.6 -5.31 C 116.76 -4.37 118 -3.55 119.27 -2.82 C 120.54 -2.1 122.07 -1.45 123.88 -0.85 C 125.69 -0.26 127.48 0.03 129.26 0.05 C 132.96 0.05 136.14 -0.93 138.81 -2.87 C 141.4 -4.74 142.98 -7.38 142.98 -10.27 C 142.98 -13.17 141.42 -15.66 138.91 -17.29 C 136.69 -18.76 133.53 -19.9 129.47 -20.68 L 129.36 -20.68 C 125.79 -21.38 123.15 -22.31 121.42 -23.47 C 119.63 -24.69 118.7 -26.19 118.65 -27.98 C 118.65 -29.94 119.63 -31.65 121.57 -33.07 C 123.67 -34.55 126.18 -35.3 129.16 -35.3 C 131.1 -35.3 132.91 -34.91 134.75 -34.03 C 135.65 -33.59 136.43 -33.18 137.02 -32.84 C 137.62 -32.48 138.37 -31.99 139.33 -31.37 C 139.85 -31.03 140.62 -31.18 140.93 -31.7 C 141.27 -32.3 141.11 -32.94 140.6 -33.33 C 139.59 -33.98 138.78 -34.5 138.19 -34.86 C 137.57 -35.22 136.74 -35.66 135.7 -36.15 C 133.61 -37.16 131.46 -37.63 129.16 -37.63 C 125.64 -37.63 122.66 -36.72 120.2 -34.94 C 117.8 -33.18 116.32 -30.69 116.32 -27.98 C 116.32 -25.31 117.77 -23.03 120.15 -21.51 C 122.17 -20.16 125.09 -19.12 128.9 -18.4 L 129 -18.4 C 132.75 -17.68 135.63 -16.67 137.59 -15.37 C 139.59 -14 140.6 -12.32 140.6 -10.27 C 140.6 -8.13 139.53 -6.29 137.41 -4.76 C 135.19 -3.13 132.47 -2.33 129.26 -2.33 L 129.13 -2.33 C 126.98 -2.33 124.86 -2.79 122.74 -3.73 C 120.59 -4.66 118.7 -5.77 117.07 -7.09 C 116.63 -7.5 115.83 -7.45 115.42 -6.94 C 115.03 -6.5 115.16 -5.72 115.6 -5.31 Z M 158.67 -35.82 L 158.67 -1.27 C 158.67 -0.57 159.24 0 159.93 0 C 160.69 0 161.28 -0.57 161.28 -1.27 L 161.28 -35.82 C 161.28 -36.52 160.69 -37.11 159.93 -37.11 C 159.24 -37.11 158.67 -36.52 158.67 -35.82 Z M 178.65 -18.81 C 178.68 -15.4 179.48 -12.24 181.06 -9.37 C 182.64 -6.5 184.79 -4.22 187.53 -2.54 C 190.27 -0.85 193.27 0 196.56 0 C 199.8 0 202.8 -0.85 205.51 -2.54 C 208.23 -4.22 210.35 -6.5 211.93 -9.37 C 213.51 -12.24 214.29 -15.4 214.31 -18.81 C 214.29 -22.23 213.51 -25.39 211.93 -28.26 C 210.35 -31.13 208.23 -33.44 205.51 -35.12 C 202.8 -36.8 199.8 -37.63 196.56 -37.63 C 193.27 -37.63 190.27 -36.8 187.53 -35.12 C 184.79 -33.44 182.64 -31.13 181.06 -28.26 C 179.48 -25.39 178.68 -22.23 178.65 -18.81 Z M 181.24 -18.81 C 181.24 -23.29 183 -27.51 185.74 -30.36 C 188.49 -33.2 192.42 -34.99 196.56 -34.99 C 200.6 -34.99 204.43 -33.2 207.15 -30.36 C 209.86 -27.51 211.62 -23.29 211.65 -18.81 C 211.62 -15.84 210.95 -13.12 209.58 -10.64 C 208.21 -8.13 206.34 -6.16 204.04 -4.74 C 201.74 -3.31 199.23 -2.59 196.56 -2.59 C 192.42 -2.59 188.49 -4.4 185.74 -7.3 C 183 -10.17 181.24 -14.36 181.24 -18.81 Z M 229.93 -35.3 L 229.93 -1.27 C 229.93 -0.57 230.5 0 231.19 0 C 231.89 0 232.46 -0.57 232.46 -1.27 L 232.46 -31.65 L 254.74 -0.7 C 254.77 -0.67 254.82 -0.6 254.95 -0.47 C 255.21 -0.16 255.55 0 255.96 0 C 256.71 0 257.28 -0.57 257.28 -1.27 L 257.28 -35.45 C 257.28 -36.15 256.71 -36.72 255.96 -36.72 C 255.26 -36.72 254.69 -36.15 254.69 -35.45 L 254.69 -5.25 L 232.2 -36.41 C 231.87 -37.01 231.01 -37.11 230.42 -36.72 C 229.93 -36.33 229.74 -35.87 229.93 -35.3 Z" stroke-linecap="round" />
</g>
</g>
</g>
</svg>