<svg xmlns="http://www.w3.org/2000/svg" xmlns:xlink="http://www.w3.org/1999/xlink" width="500" zoomAndPan="magnify" viewBox="0 0 375 374.999991" height="500" preserveAspectRatio="xMidYMid meet" version="1.0"><defs><clipPath id="7335a0961d"><path d="M 0 35.113281 L 375 35.113281 L 375 339.613281 L 0 339.613281 Z M 0 35.113281 " clip-rule="nonzero"/></clipPath></defs><g clip-path="url(#7335a0961d)"><path fill="#000000" d="M 374.472656 186.054688 C 374.300781 185.808594 357.054688 161.269531 325.578125 137.113281 C 321.695312 134.132812 317.460938 131.078125 312.929688 128.011719 L 343.113281 87.417969 C 343.859375 86.410156 343.652344 84.992188 342.640625 84.238281 C 341.632812 83.492188 340.203125 83.699219 339.457031 84.710938 L 309.128906 125.496094 C 294.03125 115.695312 275.695312 106.074219 254.464844 99.066406 L 270.105469 50.597656 C 270.488281 49.40625 269.835938 48.125 268.640625 47.734375 C 267.449219 47.351562 266.167969 48.007812 265.777344 49.199219 L 250.125 97.675781 C 231.96875 92.09375 211.789062 88.472656 189.800781 88.238281 L 189.800781 37.53125 C 189.800781 36.277344 188.78125 35.257812 187.527344 35.257812 C 186.273438 35.257812 185.253906 36.277344 185.253906 37.53125 L 185.253906 88.246094 C 163.277344 88.484375 143.09375 92.101562 124.929688 97.683594 L 109.277344 49.207031 C 108.898438 48.015625 107.613281 47.359375 106.414062 47.742188 C 105.21875 48.125 104.554688 49.40625 104.945312 50.605469 L 120.589844 99.074219 C 99.367188 106.082031 81.03125 115.703125 65.9375 125.503906 L 35.605469 84.710938 C 34.859375 83.699219 33.433594 83.492188 32.421875 84.238281 C 31.414062 84.980469 31.203125 86.410156 31.949219 87.417969 L 62.132812 128.011719 C 57.601562 131.078125 53.371094 134.132812 49.484375 137.113281 C 18.007812 161.269531 0.753906 185.808594 0.589844 186.054688 C 0.046875 186.835938 0.046875 187.871094 0.589844 188.644531 C 0.765625 188.890625 18.007812 213.429688 49.484375 237.585938 C 53.371094 240.566406 57.601562 243.621094 62.132812 246.6875 L 31.957031 287.28125 C 31.210938 288.289062 31.421875 289.707031 32.429688 290.464844 C 32.839844 290.761719 33.3125 290.910156 33.789062 290.910156 C 34.480469 290.910156 35.171875 290.589844 35.617188 289.992188 L 65.945312 249.207031 C 81.042969 259.007812 99.378906 268.625 120.609375 275.636719 L 104.964844 324.101562 C 104.582031 325.292969 105.238281 326.574219 106.429688 326.964844 C 106.667969 327.039062 106.894531 327.074219 107.132812 327.074219 C 108.097656 327.074219 108.988281 326.464844 109.296875 325.503906 L 124.949219 277.027344 C 143.101562 282.609375 163.285156 286.226562 185.269531 286.464844 L 185.269531 337.175781 C 185.269531 338.429688 186.289062 339.449219 187.546875 339.449219 C 188.800781 339.449219 189.820312 338.429688 189.820312 337.175781 L 189.820312 286.464844 C 211.796875 286.226562 231.980469 282.609375 250.140625 277.027344 L 265.792969 325.503906 C 266.101562 326.464844 266.996094 327.074219 267.960938 327.074219 C 268.1875 327.074219 268.425781 327.039062 268.660156 326.964844 C 269.851562 326.585938 270.515625 325.300781 270.125 324.101562 L 254.484375 275.636719 C 275.710938 268.625 294.046875 259.007812 309.144531 249.207031 L 339.476562 289.992188 C 339.921875 290.589844 340.613281 290.910156 341.304688 290.910156 C 341.777344 290.910156 342.25 290.761719 342.660156 290.464844 C 343.667969 289.71875 343.878906 288.289062 343.132812 287.28125 L 312.949219 246.6875 C 317.480469 243.621094 321.710938 240.566406 325.597656 237.585938 C 357.074219 213.4375 374.328125 188.890625 374.492188 188.644531 C 375.019531 187.871094 375.019531 186.835938 374.472656 186.054688 Z M 322.675781 234.078125 C 318.316406 237.421875 313.523438 240.859375 308.328125 244.296875 C 308.316406 244.296875 308.316406 244.304688 308.308594 244.304688 C 279.582031 263.277344 238.394531 281.945312 187.527344 281.945312 C 136.660156 281.945312 95.472656 263.289062 66.746094 244.304688 C 66.746094 244.304688 66.746094 244.304688 66.738281 244.304688 C 66.726562 244.304688 66.726562 244.296875 66.71875 244.296875 C 61.523438 240.867188 56.738281 237.421875 52.367188 234.078125 C 25.515625 213.503906 9.21875 192.671875 5.257812 187.355469 C 9.21875 182.035156 25.515625 161.207031 52.367188 140.632812 C 56.738281 137.285156 61.523438 133.839844 66.726562 130.414062 C 66.726562 130.414062 66.738281 130.414062 66.738281 130.402344 C 95.464844 111.429688 136.652344 92.765625 187.519531 92.765625 C 238.386719 92.765625 279.570312 111.429688 308.300781 130.402344 C 308.300781 130.402344 308.308594 130.402344 308.308594 130.402344 C 313.503906 133.839844 318.300781 137.277344 322.667969 140.625 C 349.519531 161.199219 365.820312 182.027344 369.777344 187.34375 C 365.828125 192.671875 349.53125 213.503906 322.675781 234.078125 Z M 187.527344 100.910156 C 139.828125 100.910156 101.015625 139.6875 101.015625 187.34375 C 101.015625 235.003906 139.828125 273.78125 187.527344 273.78125 C 235.226562 273.78125 274.039062 235.003906 274.039062 187.34375 C 274.046875 139.6875 235.238281 100.910156 187.527344 100.910156 Z M 187.527344 269.242188 C 142.328125 269.242188 105.566406 232.503906 105.566406 187.355469 C 105.566406 142.195312 142.339844 105.464844 187.527344 105.464844 C 232.726562 105.464844 269.488281 142.207031 269.488281 187.355469 C 269.496094 232.503906 232.726562 269.242188 187.527344 269.242188 Z M 187.527344 133.550781 C 157.835938 133.550781 133.675781 157.6875 133.675781 187.355469 C 133.675781 217.019531 157.835938 241.160156 187.527344 241.160156 C 217.21875 241.160156 241.378906 217.019531 241.378906 187.355469 C 241.378906 157.679688 217.21875 133.550781 187.527344 133.550781 Z M 187.527344 236.613281 C 160.335938 236.613281 138.226562 214.511719 138.226562 187.355469 C 138.226562 160.1875 160.347656 138.097656 187.527344 138.097656 C 214.71875 138.097656 236.828125 160.199219 236.828125 187.355469 C 236.828125 214.511719 214.71875 236.613281 187.527344 236.613281 Z M 187.527344 236.613281 " fill-opacity="1" fill-rule="nonzero"/></g></svg>