<?xml version="1.0" encoding="UTF-8" standalone="no" ?>
<!DOCTYPE svg PUBLIC "-//W3C//DTD SVG 1.1//EN" "http://www.w3.org/Graphics/SVG/1.1/DTD/svg11.dtd">
<svg xmlns="http://www.w3.org/2000/svg" xmlns:xlink="http://www.w3.org/1999/xlink" version="1.1" width="1280" height="1024" viewBox="0 0 1280 1024" xml:space="preserve">
<desc>Created with Fabric.js 4.4.0</desc>
<defs>
</defs>
<g transform="matrix(1 0 0 1 640 512)" id="background-logo"  >
<rect style="stroke: none; stroke-width: 0; stroke-dasharray: none; stroke-linecap: butt; stroke-dashoffset: 0; stroke-linejoin: miter; stroke-miterlimit: 4; fill: rgb(255,255,255); fill-opacity: 0; fill-rule: nonzero; opacity: 1;"  paint-order="stroke"  x="-640" y="-512" rx="0" ry="0" width="1280" height="1024" />
</g>
<g transform="matrix(3.853733824900829 0 0 3.853733824900829 640 394.6081374268794)" id="logo-logo"  >
<g style=""  paint-order="stroke"   >
		<g transform="matrix(1.471888740517334 0 0 -1.4718887405173342 0 0)"  >
<linearGradient id="SVGID_8_992683" gradientUnits="userSpaceOnUse" gradientTransform="matrix(1 0 0 1 22.99839415305499 19.064999999999998)"  x1="0" y1="0" x2="0" y2="112">
<stop offset="0%" style="stop-color:rgb(23,234,217);stop-opacity: 1"/>
<stop offset="100%" style="stop-color:rgb(96,120,234);stop-opacity: 1"/>
</linearGradient>
<path style="stroke: none; stroke-width: 1; stroke-dasharray: none; stroke-linecap: butt; stroke-dashoffset: 0; stroke-linejoin: miter; stroke-miterlimit: 4; fill: url(#SVGID_8_992683); fill-rule: nonzero; opacity: 1;"  paint-order="stroke"  transform=" translate(-78.91319741888024, -75.0005)" d="M 51.645 123.864 C 38.725 116.656 29.335 104.81 25.207 90.508 L 25.207 90.508 C 21.246 76.787 22.645 62.237 29.145 49.537 L 29.145 49.537 C 30.567999999999998 46.756 33.376 45.22 36.481 45.536 L 36.481 45.536 C 39.564 45.848 41.998000000000005 47.9 42.831 50.891000000000005 L 42.831 50.891000000000005 L 53.093 87.736 C 54.252 91.897 57.67 93.736 60.483000000000004 94.069 L 60.483000000000004 94.069 C 63.29900000000001 94.401 67.049 93.412 69.147 89.636 L 69.147 89.636 L 86.193 58.964 C 88.521 54.774 92.922 52.521 97.684 53.085 L 97.684 53.085 C 102.443 53.648 106.199 56.867000000000004 107.484 61.484 L 107.484 61.484 L 117.747 98.32900000000001 C 118.357 100.52100000000002 120.157 101.462 121.639 101.61200000000001 L 121.639 101.61200000000001 C 123.13 101.76500000000001 125.10199999999999 101.19600000000001 126.148 99.15 L 126.148 99.15 C 132.231 87.265 133.607 73.631 130.022 60.758 L 130.022 60.758 C 126.22 47.107 117.329 35.753 104.989 28.789 L 104.989 28.789 C 92.647 21.825 78.332 20.083 64.68 23.885 L 64.68 23.885 C 59.812 25.24 55.198 27.264 50.945 29.9 L 50.945 29.9 C 50.967 29.968 50.994 30.035999999999998 51.013 30.104999999999997 L 51.013 30.104999999999997 C 51.763 32.794999999999995 50.183 35.593999999999994 47.492 36.343999999999994 L 47.492 36.343999999999994 C 46.187999999999995 36.706999999999994 44.821999999999996 36.541 43.644 35.87599999999999 L 43.644 35.87599999999999 C 42.464999999999996 35.21099999999999 41.616 34.12699999999999 41.253 32.82299999999999 L 41.253 32.82299999999999 C 40.505 30.131999999999994 42.083 27.333999999999993 44.774 26.583999999999993 L 44.774 26.583999999999993 C 45.226 26.45799999999999 45.685 26.395999999999994 46.141 26.395999999999994 L 46.141 26.395999999999994 C 47.001999999999995 26.395999999999994 47.853 26.617999999999995 48.622 27.051999999999992 L 48.622 27.051999999999992 C 48.877 27.19599999999999 49.113 27.362999999999992 49.335 27.543999999999993 L 49.335 27.543999999999993 C 53.847 24.731999999999992 58.747 22.578999999999994 63.915 21.138999999999992 L 63.915 21.138999999999992 C 68.899 19.751 73.965 19.065 79 19.065 L 79 19.065 C 88.501 19.065 97.89 21.51 106.389 26.307000000000002 L 106.389 26.307000000000002 C 119.393 33.646 128.761 45.609 132.768 59.994 L 132.768 59.994 C 136.545 73.55799999999999 135.096 87.925 128.686 100.449 L 128.686 100.449 C 127.26400000000001 103.229 124.45400000000001 104.75999999999999 121.352 104.448 L 121.352 104.448 C 118.26700000000001 104.136 115.834 102.08399999999999 115.001 99.094 L 115.001 99.094 L 104.738 62.248 C 103.579 58.086999999999996 100.161 56.248 97.348 55.915 L 97.348 55.915 C 94.535 55.583 90.783 56.572 88.685 60.348 L 88.685 60.348 L 71.639 91.021 C 69.31099999999999 95.21000000000001 64.908 97.463 60.147999999999996 96.899 L 60.147999999999996 96.899 C 55.388999999999996 96.337 51.632999999999996 93.118 50.346999999999994 88.501 L 50.346999999999994 88.501 L 40.084 51.655 C 39.474000000000004 49.463 37.67400000000001 48.522 36.193000000000005 48.372 L 36.193000000000005 48.372 C 34.699000000000005 48.221 32.729000000000006 48.79 31.682000000000006 50.836 L 31.682000000000006 50.836 C 25.514000000000006 62.887 24.187000000000005 76.696 27.946000000000005 89.71799999999999 L 27.946000000000005 89.71799999999999 C 35.982000000000006 117.55599999999998 65.23400000000001 133.878 93.15299999999999 126.09899999999999 L 93.15299999999999 126.09899999999999 C 98.026 124.74099999999999 102.63999999999999 122.719 106.88799999999999 120.08599999999998 L 106.88799999999999 120.08599999999998 C 106.865 120.01699999999998 106.838 119.94999999999999 106.818 119.87899999999999 L 106.818 119.87899999999999 C 106.456 118.576 106.622 117.21 107.28699999999999 116.03099999999999 L 107.28699999999999 116.03099999999999 C 107.952 114.853 109.03599999999999 114.00399999999999 110.339 113.63999999999999 L 110.339 113.63999999999999 C 110.791 113.51399999999998 111.25 113.45199999999998 111.706 113.45199999999998 L 111.706 113.45199999999998 C 112.568 113.45199999999998 113.418 113.67399999999998 114.188 114.10899999999998 L 114.188 114.10899999999998 C 115.367 114.77299999999998 116.215 115.85799999999998 116.578 117.16099999999999 L 116.578 117.16099999999999 C 116.941 118.46399999999998 116.775 119.83099999999999 116.11 121.00999999999999 L 116.11 121.00999999999999 C 115.445 122.189 114.361 123.03699999999999 113.057 123.39999999999999 L 113.057 123.39999999999999 C 111.754 123.764 110.388 123.597 109.209 122.93199999999999 L 109.209 122.93199999999999 C 108.955 122.78899999999999 108.72 122.62199999999999 108.49900000000001 122.442 L 108.49900000000001 122.442 C 103.992 125.25 99.093 127.40299999999999 93.918 128.845 L 93.918 128.845 C 88.899 130.243 83.795 130.935 78.73 130.936 L 78.73 130.936 C 69.322 130.936 60.043000000000006 128.549 51.645 123.864 M 111.10400000000001 116.38600000000001 C 110.53400000000002 116.546 110.06000000000002 116.91600000000001 109.76900000000002 117.43200000000002 L 109.76900000000002 117.43200000000002 C 109.47900000000001 117.94700000000002 109.40600000000002 118.54400000000001 109.56400000000002 119.11500000000002 L 109.56400000000002 119.11500000000002 C 109.72300000000003 119.68500000000002 110.09400000000002 120.15800000000003 110.61000000000003 120.45000000000002 L 110.61000000000003 120.45000000000002 C 110.94700000000003 120.64000000000001 111.31800000000003 120.73600000000002 111.69500000000002 120.73600000000002 L 111.69500000000002 120.73600000000002 C 111.89400000000002 120.73600000000002 112.09500000000003 120.70900000000002 112.29300000000002 120.65400000000002 L 112.29300000000002 120.65400000000002 C 112.86300000000001 120.49600000000002 113.33700000000002 120.12400000000002 113.62800000000001 119.60900000000002 L 113.62800000000001 119.60900000000002 C 113.91800000000002 119.09300000000002 113.99000000000001 118.49600000000002 113.83200000000001 117.92600000000002 L 113.83200000000001 117.92600000000002 C 113.674 117.35600000000002 113.302 116.88200000000002 112.787 116.59100000000002 L 112.787 116.59100000000002 C 112.45 116.40100000000002 112.078 116.30400000000002 111.70100000000001 116.30400000000002 L 111.70100000000001 116.30400000000002 C 111.50200000000001 116.30400000000002 111.301 116.33100000000002 111.10400000000001 116.38600000000001 M 45.539 29.33 C 44.363 29.657999999999998 43.672000000000004 30.881999999999998 43.999 32.059 L 43.999 32.059 C 44.158 32.629 44.529 33.102 45.044000000000004 33.393 L 45.044000000000004 33.393 C 45.56 33.684 46.157000000000004 33.757 46.728 33.598 L 46.728 33.598 C 47.904 33.269999999999996 48.595 32.046 48.267 30.869999999999997 L 48.267 30.869999999999997 C 48.109 30.299999999999997 47.737 29.825999999999997 47.222 29.534999999999997 L 47.222 29.534999999999997 C 46.885 29.344999999999995 46.512 29.247999999999998 46.136 29.247999999999998 L 46.136 29.247999999999998 C 45.937000000000005 29.247999999999998 45.736000000000004 29.275 45.539 29.33" stroke-linecap="round" />
</g>
</g>
</g>
<g transform="matrix(1.9211538461538462 0 0 1.9211538461538462 636.6177610384785 841.587173112976)" id="text-logo"  >
<g style=""  paint-order="stroke"   >
		<g transform="matrix(1 0 0 1 -5.684342e-14 0)" id="text-logo-path-0"  >
<linearGradient id="SVGID_992684" gradientUnits="userSpaceOnUse" gradientTransform="matrix(1 0 0 1 9.542138247057323 -64.12)"  x1="0" y1="0" x2="0" y2="102">
<stop offset="0%" style="stop-color:rgb(23,234,217);stop-opacity: 1"/>
<stop offset="100%" style="stop-color:rgb(96,120,234);stop-opacity: 1"/>
</linearGradient>
<path style="stroke: none; stroke-width: 0; stroke-dasharray: none; stroke-linecap: butt; stroke-dashoffset: 0; stroke-linejoin: miter; stroke-miterlimit: 4; fill: url(#SVGID_992684); fill-rule: nonzero; opacity: 1;"  paint-order="stroke"  transform=" translate(-223.96606912352865, 32.015)" d="M 9.66 -60.15 L 9.66 -2.16 C 9.66 -0.97 10.63 0 11.82 0 C 13.01 0 13.98 -0.97 13.98 -2.16 L 13.98 -53.93 L 51.94 -1.19 C 51.99 -1.15 52.08 -1.01 52.3 -0.79 C 52.74 -0.26 53.31 0 54.02 0 C 55.3 0 56.27 -0.97 56.27 -2.16 L 56.27 -60.41 C 56.27 -61.6 55.3 -62.57 54.02 -62.57 C 52.83 -62.57 51.86 -61.6 51.86 -60.41 L 51.86 -8.95 L 13.54 -62.04 C 12.96 -63.06 11.51 -63.23 10.49 -62.57 C 9.66 -61.91 9.35 -61.12 9.66 -60.15 Z M 85.07 -59.79 L 109.55 -1.54 L 109.63 -1.46 C 109.63 -1.32 109.68 -1.28 109.72 -1.28 C 109.9 -0.71 110.25 -0.35 110.82 -0.18 L 110.91 -0.09 C 111.05 -0.04 111.31 0 111.71 0 C 111.93 0 112.19 -0.04 112.54 -0.18 L 112.63 -0.18 C 113.34 -0.44 113.74 -1.06 113.87 -1.98 L 138.34 -59.79 C 138.83 -60.9 138.3 -62.26 137.19 -62.66 C 136.09 -63.19 134.72 -62.7 134.37 -61.6 L 111.71 -7.76 L 89.13 -61.6 C 88.73 -62.7 87.37 -63.19 86.26 -62.66 C 85.16 -62.26 84.59 -60.9 85.07 -59.79 Z M 162.74 -61.03 L 162.74 -2.16 C 162.74 -0.97 163.71 0 164.9 0 C 166.18 0 167.19 -0.97 167.19 -2.16 L 167.19 -61.03 C 167.19 -62.22 166.18 -63.23 164.9 -63.23 C 163.71 -63.23 162.74 -62.22 162.74 -61.03 Z M 196.97 -9.04 C 198.95 -7.45 201.07 -6.04 203.23 -4.81 C 205.39 -3.57 207.99 -2.47 211.08 -1.46 C 214.17 -0.44 217.21 0.04 220.25 0.09 C 226.56 0.09 231.98 -1.59 236.52 -4.89 C 240.93 -8.07 243.62 -12.57 243.62 -17.51 C 243.62 -22.44 240.98 -26.68 236.7 -29.46 C 232.91 -31.97 227.53 -33.91 220.6 -35.23 L 220.43 -35.23 C 214.34 -36.42 209.84 -38.01 206.89 -39.99 C 203.85 -42.07 202.26 -44.62 202.17 -47.67 C 202.17 -51.02 203.85 -53.93 207.15 -56.35 C 210.73 -58.87 215 -60.15 220.07 -60.15 C 223.38 -60.15 226.47 -59.49 229.6 -57.99 C 231.14 -57.24 232.47 -56.53 233.48 -55.96 C 234.49 -55.34 235.77 -54.5 237.4 -53.44 C 238.29 -52.87 239.61 -53.14 240.14 -54.02 C 240.71 -55.03 240.45 -56.13 239.57 -56.8 C 237.85 -57.9 236.48 -58.78 235.46 -59.4 C 234.41 -60.01 232.99 -60.76 231.23 -61.6 C 227.66 -63.32 224 -64.12 220.07 -64.12 C 214.08 -64.12 209.01 -62.57 204.82 -59.53 C 200.72 -56.53 198.2 -52.3 198.2 -47.67 C 198.2 -43.13 200.67 -39.25 204.73 -36.64 C 208.17 -34.35 213.15 -32.59 219.63 -31.35 L 219.81 -31.35 C 226.2 -30.12 231.1 -28.4 234.45 -26.19 C 237.85 -23.86 239.57 -20.99 239.57 -17.51 C 239.57 -13.85 237.76 -10.72 234.14 -8.11 C 230.35 -5.34 225.72 -3.97 220.25 -3.97 L 220.03 -3.97 C 216.37 -3.97 212.75 -4.76 209.14 -6.35 C 205.48 -7.94 202.26 -9.83 199.48 -12.08 C 198.73 -12.79 197.37 -12.7 196.66 -11.82 C 196 -11.07 196.22 -9.75 196.97 -9.04 Z M 270.36 -61.03 L 270.36 -2.16 C 270.36 -0.97 271.33 0 272.52 0 C 273.8 0 274.81 -0.97 274.81 -2.16 L 274.81 -61.03 C 274.81 -62.22 273.8 -63.23 272.52 -63.23 C 271.33 -63.23 270.36 -62.22 270.36 -61.03 Z M 304.41 -32.06 C 304.45 -26.24 305.82 -20.86 308.51 -15.96 C 311.2 -11.07 314.86 -7.19 319.54 -4.32 C 324.21 -1.46 329.32 0 334.92 0 C 340.44 0 345.55 -1.46 350.18 -4.32 C 354.81 -7.19 358.43 -11.07 361.12 -15.96 C 363.81 -20.86 365.13 -26.24 365.17 -32.06 C 365.13 -37.88 363.81 -43.26 361.12 -48.15 C 358.43 -53.05 354.81 -56.97 350.18 -59.84 C 345.55 -62.7 340.44 -64.12 334.92 -64.12 C 329.32 -64.12 324.21 -62.7 319.54 -59.84 C 314.86 -56.97 311.2 -53.05 308.51 -48.15 C 305.82 -43.26 304.45 -37.88 304.41 -32.06 Z M 308.82 -32.06 C 308.82 -39.69 311.82 -46.87 316.49 -51.72 C 321.17 -56.57 327.87 -59.62 334.92 -59.62 C 341.8 -59.62 348.33 -56.57 352.96 -51.72 C 357.59 -46.87 360.59 -39.69 360.63 -32.06 C 360.59 -26.99 359.44 -22.36 357.1 -18.12 C 354.77 -13.85 351.59 -10.49 347.67 -8.07 C 343.74 -5.64 339.47 -4.41 334.92 -4.41 C 327.87 -4.41 321.17 -7.5 316.49 -12.43 C 311.82 -17.33 308.82 -24.47 308.82 -32.06 Z M 391.78 -60.15 L 391.78 -2.16 C 391.78 -0.97 392.75 0 393.94 0 C 395.13 0 396.1 -0.97 396.1 -2.16 L 396.1 -53.93 L 434.06 -1.19 C 434.11 -1.15 434.2 -1.01 434.42 -0.79 C 434.86 -0.26 435.43 0 436.14 0 C 437.42 0 438.39 -0.97 438.39 -2.16 L 438.39 -60.41 C 438.39 -61.6 437.42 -62.57 436.14 -62.57 C 434.95 -62.57 433.98 -61.6 433.98 -60.41 L 433.98 -8.95 L 395.66 -62.04 C 395.08 -63.06 393.63 -63.23 392.61 -62.57 C 391.78 -61.91 391.47 -61.12 391.78 -60.15 Z" stroke-linecap="round" />
</g>
</g>
</g>
</svg>