<svg xmlns="http://www.w3.org/2000/svg" xmlns:xlink="http://www.w3.org/1999/xlink" width="500" zoomAndPan="magnify" viewBox="0 0 375 374.999991" height="500" preserveAspectRatio="xMidYMid meet" version="1.0"><defs><clipPath id="b14e9f00cc"><path d="M 51.75 37.5 L 323.25 37.5 L 323.25 337.5 L 51.75 337.5 Z M 51.75 37.5 " clip-rule="nonzero"/></clipPath></defs><g clip-path="url(#b14e9f00cc)"><path fill="#000000" d="M 201.785156 51.785156 C 126.832031 51.785156 66.070312 112.546875 66.070312 187.5 C 66.070312 262.453125 126.832031 323.214844 201.785156 323.214844 C 241.214844 323.214844 276.714844 306.40625 301.519531 279.542969 C 237.363281 272.316406 187.5 217.871094 187.5 151.785156 C 187.5 113.199219 204.503906 78.585938 231.402344 55.027344 C 221.875 52.90625 211.964844 51.785156 201.785156 51.785156 Z M 51.785156 187.5 C 51.785156 104.65625 118.941406 37.5 201.785156 37.5 C 218.347656 37.5 234.296875 40.1875 249.214844 45.15625 C 251.78125 46.007812 253.644531 48.242188 254.027344 50.917969 C 254.410156 53.59375 253.25 56.261719 251.027344 57.800781 C 221.257812 78.445312 201.785156 112.84375 201.785156 151.785156 C 201.785156 214.902344 252.953125 266.070312 316.070312 266.070312 C 318.777344 266.070312 321.261719 267.601562 322.472656 270.023438 C 323.679688 272.441406 323.417969 275.339844 321.792969 277.503906 C 294.4375 313.921875 250.863281 337.5 201.785156 337.5 C 118.941406 337.5 51.785156 270.34375 51.785156 187.5 Z M 51.785156 187.5 " fill-opacity="1" fill-rule="evenodd"/></g></svg>