<svg xmlns="http://www.w3.org/2000/svg" xmlns:xlink="http://www.w3.org/1999/xlink" width="500" zoomAndPan="magnify" viewBox="0 0 375 374.999991" height="500" preserveAspectRatio="xMidYMid meet" version="1.0"><defs><clipPath id="06448f2eaa"><path d="M 37.5 37.5 L 337.5 37.5 L 337.5 337.5 L 37.5 337.5 Z M 37.5 37.5 " clip-rule="nonzero"/></clipPath></defs><g clip-path="url(#06448f2eaa)"><path fill="#040606" d="M 192.1875 309.375 L 192.1875 295.3125 C 192.1875 292.488281 190.296875 290.625 187.5 290.625 C 184.675781 290.625 182.8125 292.488281 182.8125 295.3125 L 182.8125 309.375 C 118.121094 307.03125 67.96875 253.605469 65.625 192.1875 L 79.6875 192.1875 C 82.511719 192.1875 84.375 190.324219 84.375 187.5 C 84.375 184.703125 82.511719 182.8125 79.6875 182.8125 L 65.625 182.8125 C 68.449219 119.53125 118.597656 68.449219 182.8125 66.105469 L 182.8125 79.6875 C 182.8125 82.511719 184.675781 84.375 187.5 84.375 C 190.296875 84.375 192.1875 82.511719 192.1875 79.6875 L 192.1875 65.625 C 257.332031 67.96875 307.03125 121.394531 309.375 182.8125 L 295.3125 182.8125 C 292.515625 182.8125 290.625 184.703125 290.625 187.5 C 290.625 190.324219 292.515625 192.1875 295.3125 192.1875 L 309.375 192.1875 C 306.578125 255.949219 255.921875 306.550781 192.1875 309.375 Z M 332.8125 182.8125 L 318.75 182.8125 C 316.40625 116.253906 262.5 59.074219 192.1875 56.25 L 192.1875 42.1875 C 192.1875 39.363281 190.324219 37.5 187.5 37.5 C 184.703125 37.5 182.8125 39.363281 182.8125 42.1875 L 182.8125 56.25 C 113.910156 59.074219 59.074219 113.910156 56.25 182.8125 L 42.1875 182.8125 C 39.363281 182.8125 37.5 184.675781 37.5 187.5 C 37.5 190.324219 39.363281 192.1875 42.1875 192.1875 L 56.25 192.1875 C 58.59375 258.746094 112.5 315.925781 182.8125 318.75 L 182.8125 332.8125 C 182.8125 335.609375 184.675781 337.5 187.5 337.5 C 190.324219 337.5 192.1875 335.609375 192.1875 332.8125 L 192.1875 318.75 C 261.089844 316.40625 315.953125 261.089844 318.75 192.1875 L 332.8125 192.1875 C 335.609375 192.1875 337.5 190.324219 337.5 187.5 C 337.5 184.675781 335.636719 182.8125 332.8125 182.8125 " fill-opacity="1" fill-rule="nonzero"/></g><path fill="#040606" d="M 227.34375 222.65625 C 223.589844 239.0625 210.9375 257.8125 187.5 257.8125 C 164.0625 257.8125 151.410156 239.0625 147.65625 223.109375 C 142.96875 204.359375 148.136719 180.46875 169.230469 168.75 C 174.847656 172.503906 180.015625 172.957031 187.5 172.957031 C 195.464844 172.957031 201.5625 171.546875 206.730469 168.75 C 226.890625 179.988281 232.03125 203.90625 227.34375 222.65625 Z M 187.5 130.316406 C 199.21875 130.316406 207.183594 139.691406 207.183594 150 C 207.183594 153.753906 206.25 156.550781 203.90625 158.441406 C 196.875 164.996094 166.40625 166.859375 167.816406 148.589844 C 168.269531 138.28125 177.191406 130.316406 187.5 130.316406 Z M 253.605469 230.167969 C 252.644531 228.753906 251.261719 227.796875 249.847656 227.796875 L 236.265625 227.796875 C 236.71875 226.890625 236.71875 225.480469 237.199219 224.519531 C 238.582031 217.96875 239.542969 210.457031 238.582031 202.972656 L 247.503906 202.972656 L 254.082031 213.28125 C 255.46875 215.625 258.292969 216.105469 260.636719 214.691406 C 262.980469 213.28125 263.457031 210.457031 262.019531 208.140625 L 254.082031 195.464844 C 253.125 194.078125 251.714844 193.121094 250.328125 193.121094 L 237.171875 193.121094 C 235.308594 186.566406 232.964844 180.46875 228.753906 174.847656 L 245.160156 161.265625 C 246.09375 160.785156 246.546875 159.855469 246.546875 158.441406 L 251.234375 136.871094 C 251.714844 134.527344 250.328125 131.730469 247.503906 131.25 C 245.160156 130.769531 242.339844 132.183594 241.859375 135.003906 L 237.171875 155.167969 L 222.203125 167.816406 C 219.832031 165.472656 217.035156 163.128906 213.734375 161.265625 C 215.625 157.964844 217.035156 154.207031 217.035156 149.519531 C 217.035156 137.828125 210.457031 127.496094 200.152344 122.808594 C 203.425781 119.53125 207.660156 117.667969 212.347656 116.707031 C 214.691406 116.253906 216.105469 114.390625 216.105469 112.019531 C 216.105469 109.222656 213.734375 106.878906 210.9375 107.332031 C 202.496094 108.746094 194.984375 113.433594 189.84375 120.011719 L 185.609375 120.011719 C 180.46875 112.980469 172.957031 108.746094 164.542969 107.332031 C 161.71875 106.878906 159.375 109.222656 159.375 112.019531 C 159.375 114.390625 161.238281 116.253906 163.128906 116.707031 C 167.816406 117.667969 172.027344 119.53125 175.78125 122.808594 C 165.472656 127.496094 159.375 136.871094 158.894531 147.65625 C 158.441406 152.34375 159.855469 157.03125 162.652344 160.785156 C 159.375 162.652344 156.097656 165.472656 153.753906 167.816406 L 138.28125 155.167969 L 133.59375 135.003906 C 133.113281 132.660156 130.316406 130.769531 127.972656 131.25 C 125.628906 131.730469 123.738281 134.527344 124.21875 136.871094 L 128.90625 158.441406 C 128.90625 159.375 129.839844 160.308594 130.316406 160.785156 L 146.722656 174.371094 C 142.488281 180.015625 140.144531 186.566406 138.28125 192.667969 L 125.152344 192.667969 C 123.738281 192.667969 121.875 193.597656 121.394531 194.984375 L 113.433594 207.660156 C 112.019531 210.003906 112.5 212.828125 114.84375 214.214844 C 117.1875 215.625 119.984375 215.144531 121.394531 212.828125 L 127.972656 202.496094 L 136.871094 202.496094 C 136.390625 210.003906 136.871094 217.035156 138.28125 224.066406 C 138.734375 225 138.734375 226.410156 139.214844 227.34375 L 125.628906 227.34375 C 124.21875 227.34375 122.355469 228.277344 121.875 229.6875 L 113.910156 242.339844 C 112.5 244.683594 112.953125 247.503906 115.296875 248.917969 C 117.640625 250.328125 120.464844 249.847656 121.875 247.503906 L 128.425781 237.171875 L 142.96875 237.171875 C 151.410156 255.46875 168.269531 266.707031 187.953125 266.707031 C 207.660156 266.707031 224.519531 255.46875 232.964844 236.71875 L 247.480469 237.171875 L 254.058594 247.503906 C 255.46875 249.847656 258.292969 250.300781 260.609375 248.917969 C 262.980469 247.503906 263.433594 244.683594 262.019531 242.339844 L 253.605469 230.167969 " fill-opacity="1" fill-rule="nonzero"/></svg>