<svg 
    xmlns="http://www.w3.org/2000/svg" 
    xmlns:xlink="http://www.w3.org/1999/xlink" 
    width="500" zoomAndPan="magnify" 
    viewBox="0 0 375 374.999991" 
    height="500" 
    preserveAspectRatio="xMidYMid meet" 
    version="1.0"
>
    <defs>
        <clipPath id="1e8c4db884">
            <path d="M 37.5 150 L 342 150 L 342 279 L 37.5 279 Z M 37.5 150 " clip-rule="nonzero"/>
        </clipPath>
    </defs>
    <g clip-path="url(#1e8c4db884)">
        <path 
            fill="#ffffff" 
            d="M 165 214.414062 C 165 249.699219 136.5 278.226562 101.25 278.226562 C 66 278.226562 37.5 249.699219 37.5 214.414062 C 37.5 179.128906 66 150.601562 101.25 150.601562 C 136.5 150.601562 165 179.128906 165 214.414062 Z M 278.25 150.601562 C 243 150.601562 214.5 179.128906 214.5 214.414062 C 214.5 249.699219 243 278.226562 278.25 278.226562 C 313.5 278.226562 342 249.699219 342 214.414062 C 342 179.128906 313.5 150.601562 278.25 150.601562 Z M 278.25 150.601562 " 
            fill-opacity="1" 
            fill-rule="nonzero"
        />
    </g>
        <path 
            fill="#000000" 
            d="M 218.25 287.609375 C 198.375 293.617188 176.625 293.238281 157.125 286.484375 C 153.375 285.355469 150.75 281.226562 151.875 277.097656 C 153 273.34375 157.125 270.71875 161.25 271.84375 C 178.5 277.851562 196.875 278.226562 214.5 272.96875 C 223.875 270.34375 227.625 284.605469 218.25 287.609375 Z M 162.375 204.277344 C 162.375 180.628906 143.625 161.859375 120 161.859375 C 96.75 161.859375 77.625 181.003906 77.625 204.277344 C 77.625 227.550781 96.75 246.695312 120 246.695312 C 143.625 246.695312 162.375 227.550781 162.375 204.277344 Z M 297.75 161.859375 C 274.5 161.859375 255.375 181.003906 255.375 204.277344 C 255.375 227.550781 274.5 246.695312 297.75 246.695312 C 321 246.695312 340.125 227.550781 340.125 204.277344 C 340.125 181.003906 321 161.859375 297.75 161.859375 Z M 127.125 98.425781 C 131.25 98.800781 134.625 94.671875 134.625 90.917969 C 134.625 86.789062 131.25 83.785156 127.125 83.410156 C 105.375 81.53125 83.625 86.414062 64.125 96.546875 C 55.5 101.050781 63 114.191406 71.625 109.683594 C 88.875 100.675781 108 96.921875 127.125 98.425781 Z M 310.125 109.683594 C 318.75 114.191406 326.25 101.425781 317.625 96.546875 C 298.5 86.414062 276.375 81.53125 255 83.410156 C 250.875 83.785156 247.5 86.789062 247.5 90.917969 C 247.5 94.671875 250.875 98.800781 255 98.425781 C 274.125 96.921875 293.25 100.675781 310.125 109.683594 Z M 310.125 109.683594 " 
            fill-opacity="1" 
            fill-rule="nonzero"
        />
</svg>